<svg width="213" height="17" viewBox="0 0 213 17" fill="none" xmlns="http://www.w3.org/2000/svg">
<path fill-rule="evenodd" clip-rule="evenodd" d="M97.6625 16.5732H102.393V0.0981097C102.369 0.090607 102.348 0.0825768 102.329 0.0752845C102.293 0.0615637 102.264 0.0504488 102.235 0.0503866C101.971 0.0497756 101.707 0.0489055 101.442 0.0480354C100.264 0.0441576 99.0856 0.0402799 97.9077 0.0593406C97.7472 0.0619125 97.5368 0.22842 97.4393 0.375876C96.2589 2.1608 95.0869 3.95099 93.9149 5.7412L93.9121 5.74541L93.9099 5.74882L93.9084 5.7511L93.9069 5.75337L93.9054 5.75564L93.904 5.75791L93.9025 5.76017L93.901 5.76244L93.9002 5.76357C93.4949 6.38273 93.0895 7.00189 92.6838 7.62083C92.3216 8.17353 91.9568 8.72464 91.5812 9.29221C91.407 9.55532 91.2305 9.82197 91.0509 10.094C90.9942 10.0096 90.9417 9.93194 90.892 9.85853L90.8913 9.85755C90.7927 9.71168 90.7054 9.58273 90.6205 9.45231C90.1244 8.69009 89.6239 7.93042 89.1234 7.17074C87.8411 5.22454 86.5588 3.27827 85.3508 1.28881C84.7478 0.295765 84.1008 -0.10088 82.9412 0.0215242C82.2232 0.0973442 81.4948 0.0792509 80.757 0.0609247C80.4289 0.0527734 80.0989 0.044576 79.7671 0.044576V16.5641H84.5367V9.00537C84.6003 9.09703 84.6526 9.17199 84.6976 9.23645C84.7763 9.34912 84.833 9.43029 84.8875 9.51203C85.1881 9.96309 85.4889 10.4141 85.7897 10.865C86.9856 12.6582 88.1815 14.4514 89.3694 16.2496C89.5367 16.5031 89.7097 16.6216 90.0307 16.6098C90.743 16.5838 91.4572 16.5882 92.1699 16.6082C92.4656 16.6166 92.6354 16.5178 92.7935 16.2732C93.8541 14.6321 94.9258 12.9979 95.9974 11.3635L95.9986 11.3618L96.4318 10.7011C96.6835 10.3173 96.9389 9.93577 97.1943 9.55434L97.1949 9.55341L97.1974 9.54966L97.1987 9.54775L97.1995 9.54648L97.2004 9.5452C97.3173 9.37059 97.4342 9.196 97.5507 9.02119L97.6625 9.05833V16.5732ZM0 0.132847C0.438872 0.131228 0.877734 0.12923 1.31659 0.127233C2.27106 0.122889 3.2255 0.118544 4.17999 0.118088C7.21239 0.116659 10.2448 0.116931 13.2772 0.117204L16.9161 0.117421H17.537V3.84659H0V0.132847ZM17.5406 6.51478H0V10.3237C0.0508091 10.3271 0.101618 10.3314 0.15243 10.3357C0.262771 10.3452 0.373575 10.3545 0.483975 10.3545C6.01171 10.3561 11.5395 10.3561 17.0673 10.3547C17.173 10.3546 17.2788 10.3464 17.3866 10.3381C17.4373 10.3341 17.4888 10.3301 17.5406 10.327V6.51478ZM0.181189 12.9675C0.120804 12.9763 0.0603721 12.9853 0 12.9923V16.7059H17.5107C17.5179 16.652 17.5269 16.5982 17.5359 16.5444C17.5554 16.4276 17.575 16.3108 17.5758 16.194C17.5782 15.8768 17.5759 15.5596 17.5736 15.2423C17.5694 14.656 17.5652 14.0696 17.5901 13.4845C17.61 13.0118 17.4427 12.9152 16.9878 12.9164C13.198 12.927 9.40812 12.9274 5.61825 12.9277C3.93581 12.9279 2.25337 12.9281 0.570945 12.9291C0.441077 12.9292 0.311087 12.9483 0.181189 12.9675ZM191.915 3.76034V0.0442198H192.474L196.784 0.0441773C200.614 0.0441206 204.445 0.0440639 208.276 0.0444103C209.698 0.0445056 210.927 1.25235 210.928 2.64937C210.928 3.15331 210.924 3.65739 210.92 4.16145C210.911 5.29234 210.902 6.42321 210.94 7.55265C210.992 9.09465 210.004 10.0582 208.916 10.4311C208.419 10.6015 207.899 10.7102 207.365 10.8221C207.122 10.8731 206.876 10.9247 206.627 10.983L213 16.5616C212.949 16.5657 212.902 16.5696 212.859 16.5735L212.778 16.581C212.663 16.5916 212.576 16.5998 212.488 16.5998L211.965 16.6005L211.618 16.6011L211.393 16.6015C209.797 16.6042 208.201 16.6069 206.605 16.5887C206.361 16.5859 206.068 16.4683 205.882 16.3092C204.559 15.1743 203.243 14.0308 201.928 12.8872L201.923 12.8834L201.922 12.8819C201.241 12.29 200.56 11.6981 199.878 11.1075C199.763 11.0084 199.612 10.8898 199.475 10.8867C198.807 10.8718 198.14 10.8736 197.444 10.8753C197.213 10.8759 196.979 10.8765 196.74 10.8765V16.5715H191.93V6.93816H192.507L195.607 6.93817C198.723 6.93819 201.839 6.93821 204.954 6.93806C205.843 6.93797 205.947 6.83395 205.947 5.95131C205.947 5.80208 205.947 5.65285 205.948 5.50363C205.948 5.1609 205.948 4.81818 205.947 4.47542C205.944 3.98981 205.719 3.76605 205.211 3.76196C204.663 3.7576 204.115 3.75853 203.567 3.75945C203.337 3.75985 203.107 3.76024 202.877 3.76024H192.521L191.915 3.76034ZM110.164 0.0446522V3.76077L110.755 3.76067H119.705C120.12 3.76067 120.535 3.76052 120.951 3.76038C121.978 3.76 123.006 3.75963 124.033 3.76153C124.641 3.76268 124.833 3.95756 124.835 4.55825C124.835 4.94938 124.835 5.34058 124.835 5.73173V5.74053V6.03462C124.835 6.8239 124.719 6.93821 123.907 6.93831C120.622 6.93874 117.338 6.93868 114.053 6.93863L110.774 6.93859H110.181V16.5654H115.017V10.8543H115.7C116.767 10.8543 117.835 10.8547 118.902 10.8551C121.45 10.8561 123.999 10.8571 126.546 10.8524C128.695 10.8486 129.83 9.75455 129.85 7.65949C129.867 5.96098 129.862 4.26219 129.851 2.56368C129.843 1.27802 128.553 0.0452237 127.236 0.0450332C123.174 0.0444015 119.113 0.0444939 115.051 0.0445862L110.699 0.0446522H110.164ZM35.9912 5.37862C36.4101 4.94011 36.827 4.5135 37.2386 4.09218C38.1996 3.10868 39.1324 2.15395 39.9984 1.14431C40.7349 0.285675 41.5109 -0.0648658 42.6525 0.0209596C43.6086 0.0928248 44.5716 0.0762563 45.5347 0.0596879C45.9515 0.0525164 46.3684 0.0453451 46.7846 0.0453451H47.3905L39.4307 8.32363L47.3654 16.5759C47.2733 16.5802 47.1946 16.5846 47.1245 16.5885C46.9957 16.5957 46.8961 16.6013 46.7964 16.6013C46.2878 16.6018 45.7792 16.6011 45.2706 16.6004C44.0607 16.5988 42.8509 16.5972 41.6412 16.6104C41.253 16.6146 40.9825 16.5101 40.7152 16.2257C39.571 15.0084 38.4153 13.8013 37.2416 12.5757L37.2398 12.5737C36.8393 12.1555 36.4368 11.7351 36.0319 11.3115L35.434 11.9319L35.4293 11.9368C34.9564 12.4275 34.4907 12.9107 34.0256 13.3946C33.7756 13.6546 33.5262 13.915 33.2767 14.1754C32.5844 14.8982 31.8919 15.6211 31.1896 16.3344C31.0592 16.467 30.8397 16.5887 30.6602 16.5904C29.0682 16.6051 27.476 16.6024 25.8838 16.5997L24.9214 16.5982C24.8947 16.5982 24.868 16.5903 24.8202 16.5763C24.79 16.5674 24.7514 16.5559 24.699 16.5425L32.5752 8.32373L24.6838 0.0899247C24.7505 0.0829711 24.8084 0.0756342 24.8606 0.0690218C24.9579 0.0567023 25.0352 0.0468978 25.1127 0.0467738C25.4367 0.0463658 25.7608 0.0457363 26.0849 0.0451068C27.5766 0.0422091 29.0683 0.0393113 30.5596 0.058014C30.7818 0.0607765 31.0586 0.18518 31.2138 0.343685C32.516 1.67408 33.8039 3.01803 35.0917 4.36194L35.7511 5.04988C35.8009 5.10194 35.8419 5.16223 35.894 5.23895L35.8946 5.23975C35.9225 5.28081 35.9538 5.32693 35.9912 5.37862ZM183.746 16.6008C184.086 16.6005 184.429 16.6002 184.775 16.6002C184.762 16.5692 184.75 16.5408 184.74 16.5147L184.71 16.4399V16.4388C184.678 16.3601 184.656 16.305 184.628 16.2532C183.88 14.8634 183.132 13.4738 182.384 12.0842C180.285 8.18552 178.186 4.28683 176.091 0.385818C175.951 0.12596 175.786 0.0339438 175.486 0.0376588C174.173 0.0538522 172.86 0.0576624 171.547 0.0358489C171.204 0.0302288 171.029 0.14625 170.874 0.433541C168.845 4.17893 166.812 7.92173 164.778 11.6645L164.775 11.6701L164.772 11.6756C163.963 13.1651 163.154 14.6545 162.345 16.1441C162.298 16.2305 162.26 16.3214 162.216 16.4266C162.193 16.4805 162.169 16.5383 162.142 16.6011C162.5 16.6011 162.854 16.6014 163.205 16.6018C164.493 16.6032 165.74 16.6045 166.987 16.5875C167.133 16.5855 167.324 16.4221 167.41 16.2838C167.731 15.7699 168.028 15.2409 168.311 14.7059C168.447 14.4498 168.616 14.3502 168.918 14.3512C170.181 14.3558 171.443 14.3567 172.706 14.3576C174.491 14.359 176.276 14.3603 178.061 14.3718C178.252 14.3731 178.511 14.5291 178.617 14.6898C178.813 14.9867 178.988 15.2974 179.162 15.6083C179.292 15.8396 179.422 16.0718 179.56 16.2976C179.64 16.4268 179.812 16.5857 179.943 16.5873C181.198 16.6031 182.453 16.602 183.746 16.6008ZM170.623 10.4822L173.402 5.13822L176.478 10.4822H170.623ZM142.341 0.0859568V12.8706H155.071V16.5601H137.605V0.0859568H142.341ZM54.4873 6.4955V10.2583H71.9724V6.4955H54.4873ZM71.9801 0.0792112V3.72544H54.5046V0.0792112H71.9801ZM54.4785 12.9195V16.5686H71.9569V12.9195H54.4785Z" fill="#0A345F"/>
</svg>